<svg xmlns="http://www.w3.org/2000/svg" xmlns:xlink="http://www.w3.org/1999/xlink" contentStyleType="text/css" data-diagram-type="DESCRIPTION" height="1229px" preserveAspectRatio="none" style="width:1954px;height:1229px;background:#FFFFFF;" version="1.1" viewBox="0 0 1954 1229" width="1954px" zoomAndPan="magnify"><?plantuml 1.2026.3beta4?><defs/><g><g class="title" data-source-line="1"><text fill="#000000" font-family="sans-serif" font-size="14" font-weight="700" lengthAdjust="spacing" textLength="261.4336" x="819.7694" y="22.9951">Caso 9 - Diagrama de Despliegue</text><text fill="#000000" font-family="sans-serif" font-size="14" font-weight="700" lengthAdjust="spacing" textLength="307.4668" x="819.7694" y="39.292">Plataforma IoT de Monitoreo Industrial</text></g><!--cluster OT--><g class="cluster" data-qualified-name="OT" data-source-line="8" id="ent0002"><polygon fill="none" points="350,69.5938,360,59.5938,1045,59.5938,1045,504.1938,1035,514.1938,350,514.1938,350,69.5938" style="stroke:#181818;stroke-width:1;"/><line style="stroke:#181818;stroke-width:1;" x1="1035" x2="1045" y1="69.5938" y2="59.5938"/><line style="stroke:#181818;stroke-width:1;" x1="350" x2="1035" y1="69.5938" y2="69.5938"/><line style="stroke:#181818;stroke-width:1;" x1="1035" x2="1035" y1="69.5938" y2="514.1938"/><text fill="#000000" font-family="sans-serif" font-size="14" font-weight="700" lengthAdjust="spacing" textLength="134.3193" x="626.3403" y="85.5889">Zona OT / Campo</text></g><!--cluster Edge--><g class="cluster" data-qualified-name="OT.Edge" data-source-line="10" id="ent0004"><polygon fill="none" points="382,212.4838,392,202.4838,1013,202.4838,1013,472.1938,1003,482.1938,382,482.1938,382,212.4838" style="stroke:#181818;stroke-width:1;"/><line style="stroke:#181818;stroke-width:1;" x1="1003" x2="1013" y1="212.4838" y2="202.4838"/><line style="stroke:#181818;stroke-width:1;" x1="382" x2="1003" y1="212.4838" y2="212.4838"/><line style="stroke:#181818;stroke-width:1;" x1="1003" x2="1003" y1="212.4838" y2="482.1938"/><text fill="#000000" font-family="sans-serif" font-size="14" font-style="italic" lengthAdjust="spacing" textLength="63.1162" x="661.9419" y="228.4789">&#171;device&#187;</text><text fill="#000000" font-family="sans-serif" font-size="14" font-weight="700" lengthAdjust="spacing" textLength="153.0293" x="616.9854" y="244.7757">Gateway Edge ARM</text></g><!--cluster RegionA--><g class="cluster" data-qualified-name="RegionA" data-source-line="20" id="ent0011"><path d="M1221.4475,348.9432 C1232.3881,330.64 1249.2874,329.7032 1261.8605,347.0949 C1274.4343,331.2754 1287.0429,327.5768 1299.3742,347.3504 C1314.1987,326.8828 1333.4098,327.6351 1346.637,349.1487 C1354.3036,328.2072 1369.4551,328.1552 1383.6525,342.2488 C1398.5565,319.8041 1417.2764,320.1332 1431.1545,343.3168 C1447.1225,321.519 1460.1538,322.043 1474.2629,345.1033 C1483.5755,325.4081 1502.0886,327.8978 1511.4205,345.0839 C1523.9674,325.2382 1540.0565,324.8075 1555.4633,341.6507 C1566.0998,321.2586 1583.8686,320.8977 1594.0176,342.1027 C1607.557,318.3888 1631.0466,319.2829 1641.4517,345.104 C1655.4101,328.3619 1667.73,325.5709 1681.3652,345.4563 C1698.1526,323.1162 1716.3919,328.6188 1726,352.4038 C1726.6221,351.4784 1727.7527,351.3119 1728.3087,352.4768 C1748.9803,362.1129 1754.8463,379.3044 1734.6173,395.0073 C1750.5383,405.7924 1753.8843,423.0843 1735.0893,434.2864 C1752.8309,450.848 1751.3824,465.5487 1731.02,478.6122 C1749.3822,486.1066 1749.7811,497.5087 1738.8785,511.9098 C1759.0714,527.3687 1757.7501,542.5096 1738.0612,557.2496 C1758.2547,566.6626 1757.2611,583.7573 1738.6618,593.8077 C1756.7593,604.5053 1755.6781,622.9537 1739.5245,634.3796 C1756.962,645.4692 1758.5226,663.7671 1738.6713,674.0549 C1755.8363,684.9274 1761.3181,703.7176 1739.0349,714.9409 C1757.1143,729.0744 1757.4542,743.7249 1735.3475,754.0715 C1752.9362,766.8056 1753.3011,783.338 1736.3486,796.8797 C1752.7022,810.1828 1751.4971,823.8559 1733.9277,835.0048 C1751.5884,847.9188 1747.9866,862.9719 1730.1259,872.2611 C1748.9589,891.5345 1742.3249,908.5053 1719,917.3838 C1721.7216,918.7906 1722.7922,920.5981 1720.0377,923.0142 C1709.5643,942.3352 1690.5935,947.1106 1677.6025,925.6329 C1664.385,943.8152 1650.4497,939.5927 1640.5914,922.1436 C1627.7261,942.2163 1611.8507,943.8049 1599.5541,921.5918 C1586.8661,943.0365 1567.0362,944.6917 1551.1641,925.3715 C1538.6722,943.9358 1526.6782,941.9052 1514.4331,925.1152 C1501.6443,948.3649 1484.1037,949.9614 1467.9636,928.6066 C1454.8055,949.7036 1437.9759,950.2023 1426.4456,927.0784 C1412.252,946.8465 1394.7337,940.0072 1385.5109,921.7301 C1373.5244,940.5646 1358.7131,938.8161 1346.1221,922.4057 C1335.1824,942.3077 1315.6863,938.0884 1305.7246,921.3282 C1290.7903,940.2744 1273.5842,939.4582 1260.7625,918.9224 C1240.1993,941.1326 1219.9631,941.3158 1208,910.3838 C1210.0867,911.451 1210.5313,913.1352 1208.8237,914.8952 C1188.4371,903.0929 1189.0636,882.9016 1210.0328,872.2725 C1192.0338,859.6062 1196.6944,842.6969 1213.9542,833.6064 C1192.9136,823.047 1195.3623,808.2583 1210.73,794.6831 C1192.4731,781.4128 1192.477,766.0293 1213.5523,755.5993 C1189.0827,744.7443 1190.5216,726.9916 1208.4685,711.272 C1194.329,699.7162 1197.0324,686.361 1212.5105,678.453 C1194.1774,665.8467 1190.8501,652.5799 1211.0982,638.6061 C1190.4445,626.1597 1193.0736,603.8422 1213.1519,593.2397 C1193.4072,586.7582 1193.2622,570.8809 1207.6401,558.9194 C1185.7161,543.9078 1190.5108,530.8306 1207.8216,515.9848 C1187.7296,500.9649 1188.1973,487.2432 1210.3258,474.7898 C1193.6754,460.1437 1191.3644,445.4057 1214.0974,434.4409 C1190.1558,426.031 1188.5239,406.9145 1209.0566,393.0839 C1189.9081,376.6128 1189.1193,356.2618 1215,345.4038 C1218.3374,343.7436 1221.1145,345.1305 1221.4475,348.9432" fill="none" style="stroke:#181818;stroke-width:1;"/><text fill="#000000" font-family="sans-serif" font-size="14" font-weight="700" lengthAdjust="spacing" textLength="186.8125" x="1373.5938" y="363.3989">Region Cloud A (Activa)</text></g><!--cluster K8sA--><g class="cluster" data-qualified-name="RegionA.K8sA" data-source-line="21" id="ent0012"><polygon fill="none" points="1224,390.4038,1234,380.4038,1710,380.4038,1710,891.3838,1700,901.3838,1224,901.3838,1224,390.4038" style="stroke:#181818;stroke-width:1;"/><line style="stroke:#181818;stroke-width:1;" x1="1700" x2="1710" y1="390.4038" y2="380.4038"/><line style="stroke:#181818;stroke-width:1;" x1="1224" x2="1700" y1="390.4038" y2="390.4038"/><line style="stroke:#181818;stroke-width:1;" x1="1700" x2="1700" y1="390.4038" y2="901.3838"/><text fill="#000000" font-family="sans-serif" font-size="14" font-weight="700" lengthAdjust="spacing" textLength="168.2666" x="1378.8667" y="406.3989">Kubernetes Cluster A</text></g><!--cluster RegionB--><g class="cluster" data-qualified-name="RegionB" data-source-line="31" id="ent0019"><path d="M660.8494,548.8318 C670.0026,530.5057 682.8414,529.1357 694.2766,546.7068 C709.499,527.1963 722.4973,528.2065 733.8502,550.3803 C743.3522,535.3306 758.4293,530.6279 769.8399,548.2797 C780.1543,535.6918 791.2063,532.7383 801.2816,548.5445 C811.0754,533.3982 826.0339,530.3669 837.2874,546.8846 C847.0954,527.7195 865.2952,526.2276 876.5946,545.3536 C886.754,531.552 898.275,527.8903 909.7351,543.9081 C921.7908,529.1565 936.9086,524.8027 947.1518,545.8049 C956.5714,525.6948 975.0878,529.1539 984.318,545.9954 C995.7543,532.9283 1009.8609,535.7391 1017.4394,550.5747 C1028.9033,527.2714 1043.3783,526.6788 1058.6082,547.0225 C1069.3702,527.8039 1087.2889,533.3115 1095.7605,549.4305 C1105.1812,532.1618 1118.0657,531.3904 1130.717,545.874 C1145.0816,533.1916 1159.5572,535.7138 1168,553.1938 C1173.0121,551.9172 1175.104,555.4954 1173.8438,559.7822 C1189.99,569.4482 1187.438,582.7012 1173.795,592.3225 C1189.9448,603.6724 1194.3663,619.2859 1174.1035,630.9268 C1192.9344,641.9118 1195.2455,658.1811 1175.6595,670.67 C1194.8503,680.3123 1195.5422,694.5666 1178.0613,706.6564 C1190.3686,718.7766 1191.2482,733.771 1172.6068,740.9717 C1192.7591,750.2824 1192.1269,769.5584 1174.62,780.7739 C1191.8695,789.9577 1188.8832,802.9246 1175.2879,812.7527 C1193.3956,825.6406 1198.2523,838.852 1176.8887,853.2983 C1192.7607,862.3626 1190.6085,878.5915 1176.5932,887.3968 C1196.079,900.3752 1194.684,914.2468 1176.1265,926.7742 C1190.7834,940.6462 1194.0032,952.6972 1173.2417,963.8104 C1188.8193,975.2413 1190.4748,989.5866 1172.5004,1000.3366 C1189.8588,1011.9397 1193.4156,1025.5336 1174.8507,1039.3033 C1188.5067,1059.2109 1183.9535,1070.9878 1161,1077.6838 C1163.938,1075.9422 1166.7857,1076.9245 1166.549,1080.8128 C1154.3257,1100.0242 1137.2348,1100.2514 1125.4617,1080.34 C1116.8853,1099.1868 1105.2002,1100.4302 1090.4999,1086.9664 C1081.263,1099.668 1067.2137,1099.0235 1058.9556,1085.7765 C1050.2471,1102.9513 1032.1312,1106.5645 1020.2412,1089.3591 C1010.1123,1107.9596 992.9143,1109.4779 981.3231,1090.8895 C969.7933,1107.8562 956.6627,1109.2464 945.5536,1090.4685 C938.3248,1109.7625 920.6259,1111.7777 910.0332,1093.6627 C895.7895,1108.2192 886.2927,1104.7298 879.1002,1086.923 C867.1322,1104.1018 855.2742,1106.3412 842.5677,1087.6757 C832.9449,1104.4996 814.9428,1107.9115 804.2514,1088.8157 C789.5417,1107.6911 773.3457,1103.125 765.4743,1082.1599 C753.7216,1097.5271 742.3939,1096.3658 730.7408,1082.0433 C719.7294,1098.3053 704.6114,1099.0201 693.1249,1082.59 C674.6571,1102.3205 656.0536,1095.9177 650,1070.6838 C652.6349,1067.7391 654.8835,1068.7263 656.4852,1071.7975 C635.742,1061.6958 636.0099,1050.4689 651.606,1035.4844 C634.6438,1025.5241 631.1029,1010.9488 649.9087,999.3102 C633.845,987.1851 636.0217,974.6729 652.904,965.4633 C633.3259,955.5134 631.9881,942.2258 648.0915,927.7256 C631.6551,913.7401 629.0128,899.9533 651.0557,888.906 C632.2701,880.0836 631.419,861.3761 649.4796,851.0208 C632.8198,840.3001 637.441,827.8064 651.259,818.7671 C632.7697,808.8086 629.9127,794.1792 648.712,781.6611 C628.5429,765.398 630.8481,752.0384 651.2343,738.1249 C638.5094,727.6099 638.1211,715.2837 652.3825,705.725 C629.0373,694.4785 628.0304,681.6411 648.1591,665.7963 C632.6523,653.6737 635.3808,637.6851 654.3301,631.8207 C631.6134,621.4677 631.8567,606.0348 649.7612,591.1217 C630.9232,574.4608 636.3021,556.4846 657,546.1938 C659.4172,545.4672 660.8742,545.9952 660.8494,548.8318" fill="none" style="stroke:#181818;stroke-width:1;"/><text fill="#000000" font-family="sans-serif" font-size="14" font-weight="700" lengthAdjust="spacing" textLength="186.6484" x="815.6758" y="564.1889">Region Cloud B (Activa)</text></g><!--cluster K8sB--><g class="cluster" data-qualified-name="RegionB.K8sB" data-source-line="32" id="ent0020"><polygon fill="none" points="666,591.1938,676,581.1938,1152,581.1938,1152,1051.6838,1142,1061.6838,666,1061.6838,666,591.1938" style="stroke:#181818;stroke-width:1;"/><line style="stroke:#181818;stroke-width:1;" x1="1142" x2="1152" y1="591.1938" y2="581.1938"/><line style="stroke:#181818;stroke-width:1;" x1="666" x2="1142" y1="591.1938" y2="591.1938"/><line style="stroke:#181818;stroke-width:1;" x1="1142" x2="1142" y1="591.1938" y2="1061.6838"/><text fill="#000000" font-family="sans-serif" font-size="14" font-weight="700" lengthAdjust="spacing" textLength="168.1025" x="820.9487" y="607.1889">Kubernetes Cluster B</text></g><!--cluster DataPlat--><g class="cluster" data-qualified-name="DataPlat" data-source-line="42" id="ent0027"><path d="M1237.2156,966.1489 C1246.9838,949.0166 1262.1987,951.5114 1270.8816,967.26 C1279.8289,951.552 1297.648,948.0578 1307.5459,966.2313 C1318.6727,951.9426 1328.8212,949.4021 1340.2071,965.9568 C1346.0773,948.9277 1361.2717,948.6522 1370.8093,962.2981 C1379.6388,947.6128 1396.6996,944.7386 1405.2304,962.6139 C1411.4622,949.5462 1424.4104,943.9954 1434.4832,958.5456 C1446.023,943.9638 1458.6318,941.0907 1469.8538,958.8927 C1480.2585,941.9615 1491.1135,943.0926 1501.3152,959.0867 C1513.0968,941.9262 1525.4703,946.0763 1535.1722,961.2635 C1546.1837,947.1042 1560.9169,945.9885 1569.8502,963.5363 C1579.5934,951.6894 1590.3493,951.849 1597.7772,966.0213 C1607.8713,948.6677 1621.3048,946.9913 1634.1215,963.0607 C1643.8567,951.5339 1655.292,947.9199 1663.6477,964.5094 C1680.0051,945.6405 1694.4131,952.4198 1703,972.3838 C1705.6652,972.8615 1707.1422,974.2196 1705.3791,976.9863 C1721.2275,986.2221 1724.6492,995.7239 1708.808,1008.4169 C1725.5688,1015.883 1727.9128,1030.105 1714.3015,1042.4707 C1733.3785,1054.5024 1732.7818,1066.9445 1714.8669,1079.5405 C1731.3237,1091.9335 1729.6821,1105.7562 1710.8663,1114.0615 C1724.4226,1123.4993 1722.7505,1137.6922 1707.5273,1143.9106 C1720.6049,1158.8904 1718.2963,1178.653 1696,1183.2738 C1696.9059,1183.0608 1697.3114,1183.5662 1697.0797,1184.4225 C1687.8176,1201.0822 1675.6882,1200.9649 1664.4636,1186.4775 C1658.2893,1202.3555 1645.4732,1204.3964 1634.5482,1191.3993 C1625.1838,1204.5754 1612.5026,1206.4668 1603.3773,1191.1378 C1592.3261,1209.4476 1579.9448,1208.345 1566.0165,1194.4785 C1556.54,1208.6434 1545.5839,1208.6498 1535.927,1194.6714 C1527.0838,1210.5373 1513.4615,1211.5936 1503.2593,1196.0864 C1493.7079,1212.5177 1479.7123,1213.9769 1466.9013,1199.9814 C1456.694,1210.8695 1446.8838,1212.3403 1438.41,1198.022 C1426.8734,1213.1213 1415.4841,1214.8912 1405.3163,1196.6628 C1393.2962,1210.5168 1377.1987,1208.9836 1368.6262,1192.4942 C1360.3401,1205.8837 1346.7719,1203.9955 1340.4473,1190.4427 C1331.5195,1207.7986 1317.2599,1207.453 1307.9242,1190.8331 C1297.6359,1207.2601 1285.7995,1205.2793 1275.6241,1190.7155 C1253.1792,1207.7743 1237.938,1205.045 1230,1176.2738 C1231.697,1174.7609 1233.3042,1174.8973 1233.9441,1177.3303 C1219.8736,1168.9251 1219.8633,1157.4502 1231.9969,1147.3435 C1211.0057,1138.9573 1207.1611,1124.8217 1225.2758,1109.4918 C1207.0448,1101.8605 1208.9339,1085.917 1222.084,1075.3518 C1205.3813,1063.5348 1205.7023,1052.0235 1223.7173,1041.9017 C1209.3641,1026.171 1214.2586,1015.6857 1232.3292,1008.2536 C1216.029,994.5823 1214.5235,974.8301 1237,965.3838 C1237.3845,965.4976 1237.4688,965.8553 1237.2156,966.1489" fill="none" style="stroke:#181818;stroke-width:1;"/><text fill="#000000" font-family="sans-serif" font-size="14" font-weight="700" lengthAdjust="spacing" textLength="246.2578" x="1343.3711" y="983.3789">Plataforma de Datos Historicos</text></g><!--cluster Ext--><g class="cluster" data-qualified-name="Ext" data-source-line="48" id="ent0031"><polygon fill="none" points="16,687.4938,26,677.4938,618,677.4938,618,786.0838,608,796.0838,16,796.0838,16,687.4938" style="stroke:#181818;stroke-width:1;"/><line style="stroke:#181818;stroke-width:1;" x1="608" x2="618" y1="687.4938" y2="677.4938"/><line style="stroke:#181818;stroke-width:1;" x1="16" x2="608" y1="687.4938" y2="687.4938"/><line style="stroke:#181818;stroke-width:1;" x1="608" x2="608" y1="687.4938" y2="796.0838"/><text fill="#000000" font-family="sans-serif" font-size="14" font-weight="700" lengthAdjust="spacing" textLength="146.248" x="239.876" y="703.4889">Sistemas Externos</text></g><!--entity Sensor--><g class="entity" data-qualified-name="OT.Sensor" data-source-line="9" id="ent0003"><polygon fill="#F1F1F1" points="745.47,109.5938,755.47,99.5938,1028.5354,99.5938,1028.5354,168.4844,1018.5354,178.4844,745.47,178.4844,745.47,109.5938" style="stroke:#181818;stroke-width:0.5;"/><line style="stroke:#181818;stroke-width:0.5;" x1="1018.5354" x2="1028.5354" y1="109.5938" y2="99.5938"/><line style="stroke:#181818;stroke-width:0.5;" x1="745.47" x2="1018.5354" y1="109.5938" y2="109.5938"/><line style="stroke:#181818;stroke-width:0.5;" x1="1018.5354" x2="1018.5354" y1="109.5938" y2="178.4844"/><text fill="#000000" font-family="sans-serif" font-size="14" font-style="italic" lengthAdjust="spacing" textLength="63.1162" x="761.47" y="132.5889">&#171;device&#187;</text><text fill="#000000" font-family="sans-serif" font-size="14" lengthAdjust="spacing" textLength="73.6846" x="760.47" y="148.8857">Sensor IoT</text><text fill="#000000" font-family="sans-serif" font-size="14" lengthAdjust="spacing" textLength="243.0654" x="760.47" y="165.1826">(Temp, Vibracion, Voltaje, Presion)</text></g><!--entity Buf--><g class="entity" data-qualified-name="OT.Edge.Buf" data-source-line="11" id="ent0005"><rect fill="#F1F1F1" height="39.2969" rx="2.5" ry="2.5" style="stroke:#181818;stroke-width:0.5;" width="151.8369" x="406.08" y="266.4838"/><polygon fill="#F1F1F1" points="540.9169,271.4838,540.9169,285.4838,552.9169,285.4838,552.9169,277.4838,546.9169,271.4838,540.9169,271.4838" style="stroke:#181818;stroke-width:0.5;"/><line style="stroke:#181818;stroke-width:0.5;" x1="546.9169" x2="546.9169" y1="271.4838" y2="277.4838"/><line style="stroke:#181818;stroke-width:0.5;" x1="552.9169" x2="546.9169" y1="277.4838" y2="277.4838"/><text fill="#000000" font-family="sans-serif" font-size="14" lengthAdjust="spacing" textLength="121.8369" x="416.08" y="292.4789">Buffer local (24h)</text></g><!--entity Rules--><g class="entity" data-qualified-name="OT.Edge.Rules" data-source-line="12" id="ent0006"><rect fill="#F1F1F1" height="39.2969" rx="2.5" ry="2.5" style="stroke:#181818;stroke-width:0.5;" width="172.666" x="592.67" y="266.4838"/><polygon fill="#F1F1F1" points="748.336,271.4838,748.336,285.4838,760.336,285.4838,760.336,277.4838,754.336,271.4838,748.336,271.4838" style="stroke:#181818;stroke-width:0.5;"/><line style="stroke:#181818;stroke-width:0.5;" x1="754.336" x2="754.336" y1="271.4838" y2="277.4838"/><line style="stroke:#181818;stroke-width:0.5;" x1="760.336" x2="754.336" y1="277.4838" y2="277.4838"/><text fill="#000000" font-family="sans-serif" font-size="14" lengthAdjust="spacing" textLength="142.666" x="602.67" y="292.4789">Motor reglas criticas</text></g><!--entity MqttClient--><g class="entity" data-qualified-name="OT.Edge.MqttClient" data-source-line="13" id="ent0007"><rect fill="#F1F1F1" height="39.2969" rx="2.5" ry="2.5" style="stroke:#181818;stroke-width:0.5;" width="170.0752" x="799.96" y="266.4838"/><polygon fill="#F1F1F1" points="953.0352,271.4838,953.0352,285.4838,965.0352,285.4838,965.0352,277.4838,959.0352,271.4838,953.0352,271.4838" style="stroke:#181818;stroke-width:0.5;"/><line style="stroke:#181818;stroke-width:0.5;" x1="959.0352" x2="959.0352" y1="271.4838" y2="277.4838"/><line style="stroke:#181818;stroke-width:0.5;" x1="965.0352" x2="959.0352" y1="277.4838" y2="277.4838"/><text fill="#000000" font-family="sans-serif" font-size="14" lengthAdjust="spacing" textLength="140.0752" x="809.96" y="292.4789">Cliente MQTT QoS 2</text></g><!--entity Saf--><g class="entity" data-qualified-name="OT.Edge.Saf" data-source-line="14" id="ent0008"><rect fill="#F1F1F1" height="39.2969" rx="2.5" ry="2.5" style="stroke:#181818;stroke-width:0.5;" width="160.7988" x="405.6" y="418.9038"/><polygon fill="#F1F1F1" points="549.3988,423.9038,549.3988,437.9038,561.3988,437.9038,561.3988,429.9038,555.3988,423.9038,549.3988,423.9038" style="stroke:#181818;stroke-width:0.5;"/><line style="stroke:#181818;stroke-width:0.5;" x1="555.3988" x2="555.3988" y1="423.9038" y2="429.9038"/><line style="stroke:#181818;stroke-width:0.5;" x1="561.3988" x2="555.3988" y1="429.9038" y2="429.9038"/><text fill="#000000" font-family="sans-serif" font-size="14" lengthAdjust="spacing" textLength="130.7988" x="415.6" y="444.8989">Store-and-Forward</text></g><!--entity Certs--><g class="entity" data-qualified-name="OT.Edge.Certs" data-source-line="15" id="ent0009"><rect fill="#F1F1F1" height="39.2969" rx="2.5" ry="2.5" style="stroke:#181818;stroke-width:0.5;" width="181.2656" x="601.37" y="418.9038"/><polygon fill="#F1F1F1" points="765.6356,423.9038,765.6356,437.9038,777.6356,437.9038,777.6356,429.9038,771.6356,423.9038,765.6356,423.9038" style="stroke:#181818;stroke-width:0.5;"/><line style="stroke:#181818;stroke-width:0.5;" x1="771.6356" x2="771.6356" y1="423.9038" y2="429.9038"/><line style="stroke:#181818;stroke-width:0.5;" x1="777.6356" x2="771.6356" y1="429.9038" y2="429.9038"/><text fill="#000000" font-family="sans-serif" font-size="14" lengthAdjust="spacing" textLength="151.2656" x="611.37" y="444.8989">Cert X.509 + TPM 2.0</text></g><!--entity APIA--><g class="entity" data-qualified-name="RegionA.K8sA.APIA" data-source-line="22" id="ent0013"><rect fill="#F1F1F1" height="36.2969" rx="2.5" ry="2.5" style="stroke:#181818;stroke-width:0.5;" width="108.4434" x="1239.78" y="420.4038"/><text fill="#000000" font-family="sans-serif" font-size="14" lengthAdjust="spacing" textLength="88.4434" x="1249.78" y="443.3989">API Gateway</text></g><!--entity MQTTA--><g class="entity" data-qualified-name="RegionA.K8sA.MQTTA" data-source-line="23" id="ent0014"><rect fill="#F1F1F1" height="36.2969" rx="2.5" ry="2.5" style="stroke:#181818;stroke-width:0.5;" width="111.0547" x="1582.47" y="420.4038"/><text fill="#000000" font-family="sans-serif" font-size="14" lengthAdjust="spacing" textLength="91.0547" x="1592.47" y="443.3989">MQTT Broker</text></g><!--entity KafkaA--><g class="entity" data-qualified-name="RegionA.K8sA.KafkaA" data-source-line="24" id="ent0015"><rect fill="#F1F1F1" height="36.2969" rx="2.5" ry="2.5" style="stroke:#181818;stroke-width:0.5;" width="113.5156" x="1314.24" y="621.1938"/><text fill="#000000" font-family="sans-serif" font-size="14" lengthAdjust="spacing" textLength="93.5156" x="1324.24" y="644.1889">Kafka Cluster</text></g><!--entity FlinkA--><g class="entity" data-qualified-name="RegionA.K8sA.FlinkA" data-source-line="25" id="ent0016"><rect fill="#F1F1F1" height="36.2969" rx="2.5" ry="2.5" style="stroke:#181818;stroke-width:0.5;" width="108.2246" x="1316.89" y="730.6438"/><text fill="#000000" font-family="sans-serif" font-size="14" lengthAdjust="spacing" textLength="88.2246" x="1326.89" y="753.6389">Flink Stream</text></g><!--entity InfluxA--><g class="entity" data-qualified-name="RegionA.K8sA.InfluxA" data-source-line="26" id="ent0017"><path d="M1240.17,850.0838 C1240.17,840.0838 1309.9981,840.0838 1309.9981,840.0838 C1309.9981,840.0838 1379.8263,840.0838 1379.8263,850.0838 L1379.8263,875.3806 C1379.8263,885.3806 1309.9981,885.3806 1309.9981,885.3806 C1309.9981,885.3806 1240.17,885.3806 1240.17,875.3806 L1240.17,850.0838" fill="#F1F1F1" style="stroke:#181818;stroke-width:0.5;"/><path d="M1240.17,850.0838 C1240.17,860.0838 1309.9981,860.0838 1309.9981,860.0838 C1309.9981,860.0838 1379.8263,860.0838 1379.8263,850.0838" fill="none" style="stroke:#181818;stroke-width:0.5;"/><text fill="#000000" font-family="sans-serif" font-size="14" lengthAdjust="spacing" textLength="119.6563" x="1250.17" y="877.0789">InfluxDB Hot Tier</text></g><!--entity SiemA--><g class="entity" data-qualified-name="RegionA.K8sA.SiemA" data-source-line="27" id="ent0018"><rect fill="#F1F1F1" height="36.2969" rx="2.5" ry="2.5" style="stroke:#181818;stroke-width:0.5;" width="163.999" x="1383" y="420.4038"/><text fill="#000000" font-family="sans-serif" font-size="14" lengthAdjust="spacing" textLength="143.999" x="1393" y="443.3989">SIEM/Observabilidad</text></g><!--entity APIB--><g class="entity" data-qualified-name="RegionB.K8sB.APIB" data-source-line="33" id="ent0021"><rect fill="#F1F1F1" height="36.2969" rx="2.5" ry="2.5" style="stroke:#181818;stroke-width:0.5;" width="108.4434" x="681.78" y="621.1938"/><text fill="#000000" font-family="sans-serif" font-size="14" lengthAdjust="spacing" textLength="88.4434" x="691.78" y="644.1889">API Gateway</text></g><!--entity MQTTB--><g class="entity" data-qualified-name="RegionB.K8sB.MQTTB" data-source-line="34" id="ent0022"><rect fill="#F1F1F1" height="36.2969" rx="2.5" ry="2.5" style="stroke:#181818;stroke-width:0.5;" width="111.0547" x="825.47" y="621.1938"/><text fill="#000000" font-family="sans-serif" font-size="14" lengthAdjust="spacing" textLength="91.0547" x="835.47" y="644.1889">MQTT Broker</text></g><!--entity KafkaB--><g class="entity" data-qualified-name="RegionB.K8sB.KafkaB" data-source-line="35" id="ent0023"><rect fill="#F1F1F1" height="36.2969" rx="2.5" ry="2.5" style="stroke:#181818;stroke-width:0.5;" width="113.5156" x="1015.24" y="730.6438"/><text fill="#000000" font-family="sans-serif" font-size="14" lengthAdjust="spacing" textLength="93.5156" x="1025.24" y="753.6389">Kafka Cluster</text></g><!--entity FlinkB--><g class="entity" data-qualified-name="RegionB.K8sB.FlinkB" data-source-line="36" id="ent0024"><rect fill="#F1F1F1" height="36.2969" rx="2.5" ry="2.5" style="stroke:#181818;stroke-width:0.5;" width="108.2246" x="1017.89" y="844.5838"/><text fill="#000000" font-family="sans-serif" font-size="14" lengthAdjust="spacing" textLength="88.2246" x="1027.89" y="867.5789">Flink Stream</text></g><!--entity InfluxB--><g class="entity" data-qualified-name="RegionB.K8sB.InfluxB" data-source-line="37" id="ent0025"><path d="M996.17,1010.3838 C996.17,1000.3838 1065.9981,1000.3838 1065.9981,1000.3838 C1065.9981,1000.3838 1135.8263,1000.3838 1135.8263,1010.3838 L1135.8263,1035.6806 C1135.8263,1045.6806 1065.9981,1045.6806 1065.9981,1045.6806 C1065.9981,1045.6806 996.17,1045.6806 996.17,1035.6806 L996.17,1010.3838" fill="#F1F1F1" style="stroke:#181818;stroke-width:0.5;"/><path d="M996.17,1010.3838 C996.17,1020.3838 1065.9981,1020.3838 1065.9981,1020.3838 C1065.9981,1020.3838 1135.8263,1020.3838 1135.8263,1010.3838" fill="none" style="stroke:#181818;stroke-width:0.5;"/><text fill="#000000" font-family="sans-serif" font-size="14" lengthAdjust="spacing" textLength="119.6563" x="1006.17" y="1037.3789">InfluxDB Hot Tier</text></g><!--entity SiemB--><g class="entity" data-qualified-name="RegionB.K8sB.SiemB" data-source-line="38" id="ent0026"><rect fill="#F1F1F1" height="36.2969" rx="2.5" ry="2.5" style="stroke:#181818;stroke-width:0.5;" width="163.999" x="972" y="621.1938"/><text fill="#000000" font-family="sans-serif" font-size="14" lengthAdjust="spacing" textLength="143.999" x="982" y="644.1889">SIEM/Observabilidad</text></g><!--entity Warm--><g class="entity" data-qualified-name="DataPlat.Warm" data-source-line="43" id="ent0028"><path d="M1246.37,1010.3838 C1246.37,1000.3838 1349.9984,1000.3838 1349.9984,1000.3838 C1349.9984,1000.3838 1453.6268,1000.3838 1453.6268,1010.3838 L1453.6268,1035.6806 C1453.6268,1045.6806 1349.9984,1045.6806 1349.9984,1045.6806 C1349.9984,1045.6806 1246.37,1045.6806 1246.37,1035.6806 L1246.37,1010.3838" fill="#F1F1F1" style="stroke:#181818;stroke-width:0.5;"/><path d="M1246.37,1010.3838 C1246.37,1020.3838 1349.9984,1020.3838 1349.9984,1020.3838 C1349.9984,1020.3838 1453.6268,1020.3838 1453.6268,1010.3838" fill="none" style="stroke:#181818;stroke-width:0.5;"/><text fill="#000000" font-family="sans-serif" font-size="14" lengthAdjust="spacing" textLength="187.2568" x="1256.37" y="1037.3789">Data Lake Warm (Parquet)</text></g><!--entity Cold--><g class="entity" data-qualified-name="DataPlat.Cold" data-source-line="44" id="ent0029"><path d="M1246.11,1115.6838 C1246.11,1105.6838 1351.9977,1105.6838 1351.9977,1105.6838 C1351.9977,1105.6838 1457.8854,1105.6838 1457.8854,1115.6838 L1457.8854,1157.2775 C1457.8854,1167.2775 1351.9977,1167.2775 1351.9977,1167.2775 C1351.9977,1167.2775 1246.11,1167.2775 1246.11,1157.2775 L1246.11,1115.6838" fill="#F1F1F1" style="stroke:#181818;stroke-width:0.5;"/><path d="M1246.11,1115.6838 C1246.11,1125.6838 1351.9977,1125.6838 1351.9977,1125.6838 C1351.9977,1125.6838 1457.8854,1125.6838 1457.8854,1115.6838" fill="none" style="stroke:#181818;stroke-width:0.5;"/><text fill="#000000" font-family="sans-serif" font-size="14" lengthAdjust="spacing" textLength="191.7754" x="1256.11" y="1142.6789">Object Storage Cold/WORM</text><text fill="#000000" font-family="sans-serif" font-size="14" lengthAdjust="spacing" textLength="160.2959" x="1256.11" y="1158.9757">(Retencion &gt;= 5 anos)</text></g><!--entity Pg--><g class="entity" data-qualified-name="DataPlat.Pg" data-source-line="45" id="ent0030"><path d="M1488.61,1010.3838 C1488.61,1000.3838 1577.9992,1000.3838 1577.9992,1000.3838 C1577.9992,1000.3838 1667.3883,1000.3838 1667.3883,1010.3838 L1667.3883,1035.6806 C1667.3883,1045.6806 1577.9992,1045.6806 1577.9992,1045.6806 C1577.9992,1045.6806 1488.61,1045.6806 1488.61,1035.6806 L1488.61,1010.3838" fill="#F1F1F1" style="stroke:#181818;stroke-width:0.5;"/><path d="M1488.61,1010.3838 C1488.61,1020.3838 1577.9992,1020.3838 1577.9992,1020.3838 C1577.9992,1020.3838 1667.3883,1020.3838 1667.3883,1010.3838" fill="none" style="stroke:#181818;stroke-width:0.5;"/><text fill="#000000" font-family="sans-serif" font-size="14" lengthAdjust="spacing" textLength="158.7783" x="1498.61" y="1037.3789">PostgreSQL Metadatos</text></g><!--entity Scada--><g class="entity" data-qualified-name="Ext.Scada" data-source-line="49" id="ent0032"><polygon fill="#F1F1F1" points="437.66,727.4938,447.66,717.4938,602.3338,717.4938,602.3338,770.0875,592.3338,780.0875,437.66,780.0875,437.66,727.4938" style="stroke:#181818;stroke-width:0.5;"/><line style="stroke:#181818;stroke-width:0.5;" x1="592.3338" x2="602.3338" y1="727.4938" y2="717.4938"/><line style="stroke:#181818;stroke-width:0.5;" x1="437.66" x2="592.3338" y1="727.4938" y2="727.4938"/><line style="stroke:#181818;stroke-width:0.5;" x1="592.3338" x2="592.3338" y1="727.4938" y2="780.0875"/><text fill="#000000" font-family="sans-serif" font-size="14" lengthAdjust="spacing" textLength="102.9082" x="452.66" y="750.4889">SCADA Legacy</text><text fill="#000000" font-family="sans-serif" font-size="14" lengthAdjust="spacing" textLength="124.6738" x="452.66" y="766.7857">(OPC UA Adapter)</text></g><!--entity Erp--><g class="entity" data-qualified-name="Ext.Erp" data-source-line="50" id="ent0033"><polygon fill="#F1F1F1" points="32.45,735.6438,42.45,725.6438,173.5467,725.6438,173.5467,761.9406,163.5467,771.9406,32.45,771.9406,32.45,735.6438" style="stroke:#181818;stroke-width:0.5;"/><line style="stroke:#181818;stroke-width:0.5;" x1="163.5467" x2="173.5467" y1="735.6438" y2="725.6438"/><line style="stroke:#181818;stroke-width:0.5;" x1="32.45" x2="163.5467" y1="735.6438" y2="735.6438"/><line style="stroke:#181818;stroke-width:0.5;" x1="163.5467" x2="163.5467" y1="735.6438" y2="771.9406"/><text fill="#000000" font-family="sans-serif" font-size="14" lengthAdjust="spacing" textLength="101.0967" x="47.45" y="758.6389">ERP / Analitica</text></g><!--entity UI--><g class="entity" data-qualified-name="Ext.UI" data-source-line="51" id="ent0034"><polygon fill="#F1F1F1" points="208.99,735.6438,218.99,725.6438,403.0173,725.6438,403.0173,761.9406,393.0173,771.9406,208.99,771.9406,208.99,735.6438" style="stroke:#181818;stroke-width:0.5;"/><line style="stroke:#181818;stroke-width:0.5;" x1="393.0173" x2="403.0173" y1="735.6438" y2="725.6438"/><line style="stroke:#181818;stroke-width:0.5;" x1="208.99" x2="393.0173" y1="735.6438" y2="735.6438"/><line style="stroke:#181818;stroke-width:0.5;" x1="393.0173" x2="393.0173" y1="735.6438" y2="771.9406"/><text fill="#000000" font-family="sans-serif" font-size="14" lengthAdjust="spacing" textLength="154.0273" x="223.99" y="758.6389">Panel y Notificaciones</text></g><g class="entity" data-qualified-name="GMN55" data-source-line="83" id="ent0056"><path d="M1060.53,250.8638 L1060.53,321.395 L1273.4641,321.395 L1273.4641,260.8638 L1263.4641,250.8638 L1060.53,250.8638" fill="#FEFFDD" style="stroke:#181818;stroke-width:0.5;"/><path d="M1263.4641,250.8638 L1263.4641,260.8638 L1273.4641,260.8638 L1263.4641,250.8638" fill="#FEFFDD" style="stroke:#181818;stroke-width:1;"/><text fill="#000000" font-family="sans-serif" font-size="13" lengthAdjust="spacing" textLength="141.3369" x="1066.53" y="267.9306">Operacion autonoma:</text><text fill="#000000" font-family="sans-serif" font-size="13" lengthAdjust="spacing" textLength="145.7866" x="1066.53" y="283.0635">- Evalua reglas locales</text><text fill="#000000" font-family="sans-serif" font-size="13" lengthAdjust="spacing" textLength="163.3696" x="1066.53" y="298.1963">- Guarda eventos criticos</text><text fill="#000000" font-family="sans-serif" font-size="13" lengthAdjust="spacing" textLength="191.9341" x="1066.53" y="313.3291">- Reenvia al recuperar enlace</text></g><g class="entity" data-qualified-name="GMN58" data-source-line="90" id="ent0059"><path d="M1734.99,1116.3438 L1734.99,1156.6094 L1939.0056,1156.6094 L1939.0056,1126.3438 L1929.0056,1116.3438 L1734.99,1116.3438" fill="#FEFFDD" style="stroke:#181818;stroke-width:0.5;"/><path d="M1929.0056,1116.3438 L1929.0056,1126.3438 L1939.0056,1126.3438 L1929.0056,1116.3438" fill="#FEFFDD" style="stroke:#181818;stroke-width:1;"/><text fill="#000000" font-family="sans-serif" font-size="13" lengthAdjust="spacing" textLength="183.0156" x="1740.99" y="1133.4106">Tiering de almacenamiento:</text><text fill="#000000" font-family="sans-serif" font-size="13" lengthAdjust="spacing" textLength="163.8647" x="1740.99" y="1148.5435">Hot / Warm / Cold-WORM</text></g><!--link Sensor to Edge--><g class="link" data-entity-1="ent0003" data-entity-2="ent0004" data-link-type="dependency" data-source-line="17" id="lnk10"><path d="M1005,178.8438 C1005,183.9488 1005,189.3306 1005,194.8544 C1005,196.2353 1005,197.6251 1005,199.0217 C1005,199.72 1005,200.4199 1005,201.1213 C1005,201.472 1005,195.8231 1005,196.1745" fill="none" id="Sensor-to-Edge" style="stroke:#181818;stroke-width:1;"/><polygon fill="#181818" points="1005,202.1745,1009,193.1745,1005,197.1745,1001,193.1745,1005,202.1745" style="stroke:#181818;stroke-width:1;"/><text fill="#000000" font-family="sans-serif" font-size="13" lengthAdjust="spacing" textLength="124.8711" x="880" y="228.1906">Telemetria cada 5s</text></g><!--link Edge to MQTTA--><g class="link" data-entity-1="ent0004" data-entity-2="ent0014" data-link-type="dependency" data-source-line="54" id="lnk35"><path d="M1014.2858,370.2738 C1014.8263,370.2738 1015.3743,370.2738 1015.9297,370.2738 C1033.7031,370.2738 1059.0938,370.2738 1089.5625,370.2738 C1150.5,370.2738 1231.75,370.2738 1313,370.2738 C1475.5,370.2738 1638,370.2738 1638,370.2738 C1638,370.2738 1638,394.0238 1638,414.2538" fill="none" id="Edge-to-MQTTA" style="stroke:#181818;stroke-width:1;"/><polygon fill="#181818" points="1638,420.2538,1642,411.2538,1638,415.2538,1634,411.2538,1638,420.2538" style="stroke:#181818;stroke-width:1;"/><text fill="#000000" font-family="sans-serif" font-size="13" lengthAdjust="spacing" textLength="129.0479" x="1157.85" y="366.3406">mTLS / MQTT QoS 2</text></g><!--link Edge to MQTTB--><g class="link" data-entity-1="ent0004" data-entity-2="ent0022" data-link-type="dependency" data-source-line="55" id="lnk36"><path d="M881,482.308 C881,482.8509 881,483.3937 881,483.9364 C881,485.0217 881,486.1066 881,487.191 C881,489.3596 881,491.5257 881,493.6878 C881,510.9847 881,528.0238 881,544.01 C881,575.9825 881,597.7438 881,614.9338" fill="none" id="Edge-to-MQTTB" style="stroke:#181818;stroke-width:1;"/><polygon fill="#181818" points="881,620.9338,885,611.9338,881,615.9338,877,611.9338,881,620.9338" style="stroke:#181818;stroke-width:1;"/><text fill="#000000" font-family="sans-serif" font-size="13" lengthAdjust="spacing" textLength="51.6572" x="829" y="387.9506">Failover</text></g><!--link MQTTA to KafkaA--><g class="link" data-entity-1="ent0014" data-entity-2="ent0015" data-link-type="dependency" data-source-line="57" id="lnk37"><path d="M1624.93,457.1638 C1624.93,507.1038 1624.93,640.2738 1624.93,640.2738 C1624.93,640.2738 1508.85,640.2738 1433.99,640.2738" fill="none" id="MQTTA-to-KafkaA" style="stroke:#181818;stroke-width:1;"/><polygon fill="#181818" points="1427.99,640.2738,1436.99,644.2738,1432.99,640.2738,1436.99,636.2738,1427.99,640.2738" style="stroke:#181818;stroke-width:1;"/></g><!--link MQTTB to KafkaB--><g class="link" data-entity-1="ent0022" data-entity-2="ent0023" data-link-type="dependency" data-source-line="58" id="lnk38"><path d="M881,657.9938 C881,689.3538 881,749.2738 881,749.2738 C881,749.2738 952.67,749.2738 1008.95,749.2738" fill="none" id="MQTTB-to-KafkaB" style="stroke:#181818;stroke-width:1;"/><polygon fill="#181818" points="1014.95,749.2738,1005.95,745.2738,1009.95,749.2738,1005.95,753.2738,1014.95,749.2738" style="stroke:#181818;stroke-width:1;"/></g><!--link KafkaA to FlinkA--><g class="link" data-entity-1="ent0015" data-entity-2="ent0016" data-link-type="dependency" data-source-line="60" id="lnk39"><path d="M1371,657.9138 C1371,678.1538 1371,704.3538 1371,724.4938" fill="none" id="KafkaA-to-FlinkA" style="stroke:#181818;stroke-width:1;"/><polygon fill="#181818" points="1371,730.4938,1375,721.4938,1371,725.4938,1367,721.4938,1371,730.4938" style="stroke:#181818;stroke-width:1;"/></g><!--link KafkaB to FlinkB--><g class="link" data-entity-1="ent0023" data-entity-2="ent0024" data-link-type="dependency" data-source-line="61" id="lnk40"><path d="M1072,767.3538 C1072,788.5438 1072,816.9938 1072,838.1838" fill="none" id="KafkaB-to-FlinkB" style="stroke:#181818;stroke-width:1;"/><polygon fill="#181818" points="1072,844.1838,1076,835.1838,1072,839.1838,1068,835.1838,1072,844.1838" style="stroke:#181818;stroke-width:1;"/></g><!--link FlinkA to InfluxA--><g class="link" data-entity-1="ent0016" data-entity-2="ent0017" data-link-type="dependency" data-source-line="63" id="lnk41"><path d="M1348.36,767.3538 C1348.36,787.1538 1348.36,812.5438 1348.36,833.8538" fill="none" id="FlinkA-to-InfluxA" style="stroke:#181818;stroke-width:1;"/><polygon fill="#181818" points="1348.36,839.8538,1352.36,830.8538,1348.36,834.8538,1344.36,830.8538,1348.36,839.8538" style="stroke:#181818;stroke-width:1;"/></g><!--link FlinkB to InfluxB--><g class="link" data-entity-1="ent0024" data-entity-2="ent0025" data-link-type="dependency" data-source-line="64" id="lnk42"><path d="M1072,881.1238 C1072,910.4838 1072,961.8938 1072,993.9638" fill="none" id="FlinkB-to-InfluxB" style="stroke:#181818;stroke-width:1;"/><polygon fill="#181818" points="1072,999.9638,1076,990.9638,1072,994.9638,1068,990.9638,1072,999.9638" style="stroke:#181818;stroke-width:1;"/></g><!--link FlinkA to Warm--><g class="link" data-entity-1="ent0016" data-entity-2="ent0028" data-link-type="dependency" data-source-line="66" id="lnk43"><path d="M1402.47,767.2138 C1402.47,815.7238 1402.47,940.9538 1402.47,994.1638" fill="none" id="FlinkA-to-Warm" style="stroke:#181818;stroke-width:1;"/><polygon fill="#181818" points="1402.47,1000.1638,1406.47,991.1638,1402.47,995.1638,1398.47,991.1638,1402.47,1000.1638" style="stroke:#181818;stroke-width:1;"/></g><!--link FlinkB to Warm--><g class="link" data-entity-1="ent0024" data-entity-2="ent0028" data-link-type="dependency" data-source-line="67" id="lnk44"><path d="M1126.55,857.2738 C1156.61,857.2738 1187.89,857.2738 1187.89,857.2738 C1187.89,857.2738 1187.89,1023.2738 1187.89,1023.2738 C1187.89,1023.2738 1208.39,1023.2738 1239.96,1023.2738" fill="none" id="FlinkB-to-Warm" style="stroke:#181818;stroke-width:1;"/><polygon fill="#181818" points="1245.96,1023.2738,1236.96,1019.2738,1240.96,1023.2738,1236.96,1027.2738,1245.96,1023.2738" style="stroke:#181818;stroke-width:1;"/></g><!--link Warm to Cold--><g class="link" data-entity-1="ent0028" data-entity-2="ent0029" data-link-type="dependency" data-source-line="68" id="lnk45"><path d="M1350,1045.9938 C1350,1063.0838 1350,1080.6038 1350,1099.3838" fill="none" id="Warm-to-Cold" style="stroke:#181818;stroke-width:1;"/><polygon fill="#181818" points="1350,1105.3838,1354,1096.3838,1350,1100.3838,1346,1096.3838,1350,1105.3838" style="stroke:#181818;stroke-width:1;"/></g><!--link APIA to UI--><g class="link" data-entity-1="ent0013" data-entity-2="ent0034" data-link-type="dependency" data-source-line="70" id="lnk46"><path d="M1269.8,456.7338 C1269.8,485.9938 1269.8,540.2738 1269.8,540.2738 C1269.8,540.2738 273.66,540.2738 273.66,540.2738 C273.66,540.2738 273.66,664.7438 273.66,719.2738" fill="none" id="APIA-to-UI" style="stroke:#181818;stroke-width:1;"/><polygon fill="#181818" points="273.66,725.2738,277.66,716.2738,273.66,720.2738,269.66,716.2738,273.66,725.2738" style="stroke:#181818;stroke-width:1;"/></g><!--link APIB to UI--><g class="link" data-entity-1="ent0021" data-entity-2="ent0034" data-link-type="dependency" data-source-line="71" id="lnk47"><path d="M681.54,640.2738 C572.63,640.2738 338.34,640.2738 338.34,640.2738 C338.34,640.2738 338.34,687.3238 338.34,719.2438" fill="none" id="APIB-to-UI" style="stroke:#181818;stroke-width:1;"/><polygon fill="#181818" points="338.34,725.2438,342.34,716.2438,338.34,720.2438,334.34,716.2438,338.34,725.2438" style="stroke:#181818;stroke-width:1;"/></g><!--link APIA to Scada--><g class="link" data-entity-1="ent0013" data-entity-2="ent0032" data-link-type="dependency" data-source-line="73" id="lnk48"><path d="M1284.61,456.8538 C1284.61,519.9138 1284.61,724.2738 1284.61,724.2738 C1284.61,724.2738 806.27,724.2738 608.55,724.2738" fill="none" id="APIA-to-Scada" style="stroke:#181818;stroke-width:1;"/><polygon fill="#181818" points="602.55,724.2738,611.55,728.2738,607.55,724.2738,611.55,720.2738,602.55,724.2738" style="stroke:#181818;stroke-width:1;"/></g><!--link APIB to Scada--><g class="link" data-entity-1="ent0021" data-entity-2="ent0032" data-link-type="dependency" data-source-line="74" id="lnk49"><path d="M681.47,649.2738 C642.53,649.2738 597.02,649.2738 597.02,649.2738 C597.02,649.2738 597.02,681.9038 597.02,711.0238" fill="none" id="APIB-to-Scada" style="stroke:#181818;stroke-width:1;"/><polygon fill="#181818" points="597.02,717.0238,601.02,708.0238,597.02,712.0238,593.02,708.0238,597.02,717.0238" style="stroke:#181818;stroke-width:1;"/></g><!--link APIA to Erp--><g class="link" data-entity-1="ent0013" data-entity-2="ent0033" data-link-type="dependency" data-source-line="75" id="lnk50"><path d="M1254.99,457.0938 C1254.99,474.9538 1254.99,499.2738 1254.99,499.2738 C1254.99,499.2738 79.48,499.2738 79.48,499.2738 C79.48,499.2738 79.48,657.2038 79.48,719.3138" fill="none" id="APIA-to-Erp" style="stroke:#181818;stroke-width:1;"/><polygon fill="#181818" points="79.48,725.3138,83.48,716.3138,79.48,720.3138,75.48,716.3138,79.48,725.3138" style="stroke:#181818;stroke-width:1;"/></g><!--link APIB to Erp--><g class="link" data-entity-1="ent0021" data-entity-2="ent0033" data-link-type="dependency" data-source-line="76" id="lnk51"><path d="M681.38,630.2738 C531.78,630.2738 126.52,630.2738 126.52,630.2738 C126.52,630.2738 126.52,684.8338 126.52,719.3738" fill="none" id="APIB-to-Erp" style="stroke:#181818;stroke-width:1;"/><polygon fill="#181818" points="126.52,725.3738,130.52,716.3738,126.52,720.3738,122.52,716.3738,126.52,725.3738" style="stroke:#181818;stroke-width:1;"/></g><!--link KafkaA to KafkaB--><g class="link" data-entity-1="ent0015" data-entity-2="ent0023" data-link-type="dependency" data-source-line="78" id="lnk52"><path d="M1307.91,640.2738 C1299.41,640.2738 1299.43,640.2738 1299.43,640.2738 C1299.43,640.2738 1299.43,749.2738 1299.43,749.2738 C1299.43,749.2738 1202.46,749.2738 1135.1,749.2738" fill="none" id="KafkaA-KafkaB" style="stroke:#181818;stroke-width:1;"/><polygon fill="#181818" points="1313.91,640.2738,1304.91,636.2738,1308.91,640.2738,1304.91,644.2738,1313.91,640.2738" style="stroke:#181818;stroke-width:1;"/><polygon fill="#181818" points="1129.1,749.2738,1138.1,753.2738,1134.1,749.2738,1138.1,745.2738,1129.1,749.2738" style="stroke:#181818;stroke-width:1;"/><text fill="#000000" font-family="sans-serif" font-size="13" lengthAdjust="spacing" textLength="74.5723" x="1201" y="745.3406">Replicacion</text></g><!--link InfluxA to InfluxB--><g class="link" data-entity-1="ent0017" data-entity-2="ent0025" data-link-type="dependency" data-source-line="79" id="lnk53"><path d="M1233.77,869.2738 C1184.09,869.2738 1132.29,869.2738 1132.29,869.2738 C1132.29,869.2738 1132.29,951.1238 1132.29,994.0138" fill="none" id="InfluxA-InfluxB" style="stroke:#181818;stroke-width:1;"/><polygon fill="#181818" points="1239.77,869.2738,1230.77,865.2738,1234.77,869.2738,1230.77,873.2738,1239.77,869.2738" style="stroke:#181818;stroke-width:1;"/><polygon fill="#181818" points="1132.29,1000.0138,1136.29,991.0138,1132.29,995.0138,1128.29,991.0138,1132.29,1000.0138" style="stroke:#181818;stroke-width:1;"/><text fill="#000000" font-family="sans-serif" font-size="13" lengthAdjust="spacing" textLength="126.1787" x="1005.29" y="893.9706">Replicacion hot tier</text></g><!--link SiemA to SiemB--><g class="link" data-entity-1="ent0018" data-entity-2="ent0026" data-link-type="dependency" data-source-line="80" id="lnk54"><path d="M1405.38,462.9138 C1405.38,501.4638 1405.38,581.2738 1405.38,581.2738 C1405.38,581.2738 1098.27,581.2738 1098.27,581.2738 C1098.27,581.2738 1098.27,597.9538 1098.27,614.9738" fill="none" id="SiemA-SiemB" style="stroke:#181818;stroke-width:1;"/><polygon fill="#181818" points="1405.38,456.9138,1401.38,465.9138,1405.38,461.9138,1409.38,465.9138,1405.38,456.9138" style="stroke:#181818;stroke-width:1;"/><polygon fill="#181818" points="1098.27,620.9738,1102.27,611.9738,1098.27,615.9738,1094.27,611.9738,1098.27,620.9738" style="stroke:#181818;stroke-width:1;"/><text fill="#000000" font-family="sans-serif" font-size="13" lengthAdjust="spacing" textLength="130.1333" x="1163.15" y="577.3406">Correlacion eventos</text></g><!--link Edge to GMN55--><g class="link" data-entity-1="ent0004" data-entity-2="ent0056" data-link-type="association" data-source-line="83" id="lnk57"><path d="M1013.1199,286.2738 C1013.2245,286.2738 1013.3301,286.2738 1013.4365,286.2738 C1013.8623,286.2738 1014.3024,286.2738 1014.7562,286.2738 C1015.6639,286.2738 1016.6269,286.2738 1017.6417,286.2738 C1019.6712,286.2738 1021.9078,286.2738 1024.3238,286.2738 C1033.9875,286.2738 1046.52,286.2738 1060.14,286.2738" fill="none" id="Edge-GMN55" style="stroke:#181818;stroke-width:1;stroke-dasharray:7,7;"/></g><!--link DataPlat to GMN58--><g class="link" data-entity-1="ent0027" data-entity-2="ent0059" data-link-type="association" data-source-line="90" id="lnk60"><path d="M1711.0967,1137.2738 C1711.1388,1137.2738 1711.1811,1137.2738 1711.2235,1137.2738 C1711.3084,1137.2738 1711.3938,1137.2738 1711.4798,1137.2738 C1711.6518,1137.2738 1711.826,1137.2738 1712.0025,1137.2738 C1717.65,1137.2738 1725.59,1137.2738 1734.76,1137.2738" fill="none" id="DataPlat-GMN58" style="stroke:#181818;stroke-width:1;stroke-dasharray:7,7;"/></g><?plantuml-src bLRVRzj637xNNq7uASFgkWWMO0so09AJj4RYMR7LTHZwGakKVFNfpZsTd1X3__VnxkIVsORqmO18ViSZFnv9Ms4bmH0R3U-X3pS2AuCrGa5mGyrA2gfQ-g9IYHPBRTWoqfcpZhKILXlIC595srWZK4PHinHgXUm1cWKM-ace2agK3HrOf51aDoi2RUn27nWAAh6LDgDd6qjHgPgK1KcbFS3akbvfnOQPtN3WXdABgf8KHKfpLBs_j4AOP33Wd1ZP0soS-7S4400pKeqsBeilwYoZUlK6_X1pWxdGYZ-rjFYLta1gg67DJzv1T-Rggg2roEdwUkVj0rfwmWtS5XL1F1rxk1VsO7yv01ehIimjz9AsBCc0r3bAE3l_PH5kOVK9SAoPOSwnacpEZR0YnyPZfwsavWGzv68fovLvp39ur3Cuzz3nDsk3wGG_S-NheohwTzeyeIb2hdWQnP2CXJ_VNhnx3pz3bexX_Eqx3tK65yHt_dKKzVlN8VrBo4XIJUvTG8u5maKJVO-YNEgsWDwKAcONXbwAuIpEhLXZu27OueEQtRTpClneYE-K_DQOlDX3xtzjuexUtSE0NfoEe2kCHx4Sds8yIOdHIpA19PPVWEwnNEBsod2Xqxp0tV6JNiBC6iBQmxmYm0fkd3asdCL8bR9zladWexQGYSvZqBvmEHlTZWUJUKDcZNCXHO5TUGJLiUVyFyXC_etCvF_9JBPa9gyYCtaDcSahoKnUHsRo0sGcFq9cSaBcmQHpCn2jRk2ZQBXNHAv3yx4I7SoJjG_9gU41bmIVqTHmbgBvrf8DTN2g8_Ha_fLd5xWcHEwNePR5uFDaEkQfDENYA3UFuFetk01KkWbE7EZ8IQeRMncQFJx0c2ntcUr2J2kNKZVnE7ggtLnwPkPLXs3XS2eEuviO7gZ2VCCHJD8XV8eXBd35HxeXwBfuT-1sclACZHLAFvM2IxFQsLDK9643lsiU8mnmwL2u-TF8nUQdX1iNllDuNjJPmunTxgVNCIHXo1qAgTTaeYWSShQk8mDafqYYA1Yygcl7ODbh61GiNhLjn60wK1t3V24FC5xs1NUIhr3a1euNELNNBzlllI6GkRFjn61rHEviJjWcSxLFaEcO4k_dG6tKHHyGNTp745XmfrZkbCZFa83q7S2ueJQ6PC3Hcfj6D-xvy3OnebfOqAKVwz5aHM5L0hPMArtZPTI7spNA5hUBokyrtavz-D3oLi6jmsw3QMUP4garRmPUWBp2M-VL02cEW29I1RYhkm3csbfTkmYsVHUvVdV_BFYXeQpvZCBQBJXz6RbnC0WDEF3LwBkcsldy1m00?></g></svg>